<?xml version="1.0" standalone="no"?>
<!DOCTYPE svg PUBLIC "-//W3C//DTD SVG 20010904//EN"
 "http://www.w3.org/TR/2001/REC-SVG-20010904/DTD/svg10.dtd">
<svg version="1.0" xmlns="http://www.w3.org/2000/svg"
 width="1024.000000pt" height="1024.000000pt" viewBox="0 0 1024.000000 1024.000000"
 preserveAspectRatio="xMidYMid meet">
<metadata>
Created by potrace 1.11, written by Peter Selinger 2001-2013
</metadata>
<g transform="translate(0.000000,1024.000000) scale(0.100000,-0.100000)"
fill="#000000" stroke="none">
<path d="M2586 9592 c-27 -3 -66 -23 -92 -47 -13 -12 -849 -833 -1121 -1103
-160 -157 -188 -181 -201 -170 -9 7 -37 33 -63 58 -25 25 -126 122 -224 215
-98 94 -183 175 -190 181 -26 26 -83 47 -130 48 -88 1 -131 -29 -333 -230
-193 -193 -221 -232 -223 -316 -3 -85 5 -97 178 -274 311 -318 818 -837 830
-849 30 -31 109 -59 175 -62 118 -4 145 11 292 166 146 153 631 637 1250 1246
459 452 464 459 464 571 0 32 -7 71 -15 87 -7 15 -11 27 -8 27 7 0 -45 71 -58
81 -8 6 -108 99 -270 252 -108 101 -171 130 -261 119z"/>
<path d="M4137 8954 c-1 -1 -20 -4 -42 -7 -114 -14 -213 -105 -240 -223 -9
-34 -12 -168 -11 -430 l1 -379 26 -55 c40 -86 93 -133 184 -165 47 -16 223
-17 2970 -18 1606 0 2938 3 2959 7 102 19 200 103 232 199 16 46 18 95 18 442
-1 376 -2 392 -22 438 -43 96 -119 162 -212 183 -27 6 -5856 14 -5863 8z"/>
<path d="M2555 6404 c-21 -7 -58 -32 -83 -56 -52 -51 -584 -573 -926 -911
-132 -131 -268 -265 -301 -297 l-60 -60 -91 88 c-312 298 -389 369 -422 386
-44 23 -134 29 -188 14 -73 -22 -76 -25 -304 -268 -140 -149 -152 -164 -166
-219 -14 -55 -9 -92 18 -147 29 -58 1007 -1034 1066 -1064 24 -11 67 -23 96
-25 109 -8 73 -41 1067 954 985 984 932 926 938 1044 4 86 -21 122 -232 332
-111 111 -211 202 -235 214 -52 26 -126 33 -177 15z"/>
<path d="M4036 5735 c-62 -25 -127 -80 -153 -129 -38 -72 -40 -104 -39 -502 2
-382 2 -390 24 -439 30 -65 92 -128 156 -157 l51 -23 2946 -3 c3235 -2 2998
-7 3086 57 58 42 102 111 116 181 9 40 12 175 12 422 -1 333 -3 367 -21 417
-19 55 -87 137 -132 160 -81 42 37 41 -3052 41 l-2935 -1 -59 -24z"/>
<path d="M1149 2876 c-2 -2 -17 -6 -34 -9 -106 -16 -355 -114 -355 -138 0 -5
-5 -9 -10 -9 -13 0 -12 1 -110 -83 -85 -73 -119 -109 -174 -186 -60 -85 -124
-236 -140 -331 -3 -19 -9 -46 -12 -60 -6 -32 -7 -247 0 -280 3 -14 8 -36 11
-50 3 -14 7 -34 9 -45 9 -43 56 -163 82 -210 90 -162 265 -329 429 -408 76
-37 180 -73 235 -81 19 -3 46 -8 60 -11 34 -8 277 -8 289 -1 5 4 30 9 55 12
49 5 151 40 226 76 127 62 284 199 365 319 16 24 32 46 35 49 14 13 70 142 89
204 33 106 33 112 37 266 3 186 -14 275 -83 430 -25 56 -72 132 -85 138 -5 2
-8 10 -8 17 0 16 -206 225 -221 225 -6 0 -25 11 -42 24 -54 41 -184 96 -287
120 -74 17 -130 23 -228 24 -71 1 -131 0 -133 -2z"/>
<path d="M4167 2563 c-1 -1 -25 -4 -53 -6 -103 -9 -186 -67 -235 -165 l-34
-66 -1 -374 c-1 -205 3 -396 8 -425 20 -106 91 -185 213 -233 11 -4 1338 -9
2950 -9 3083 -2 3019 -3 3061 40 9 8 20 15 25 15 11 0 59 49 90 93 11 15 17
27 13 27 -3 0 -2 6 4 13 6 6 14 35 19 62 11 60 10 759 -1 795 -16 54 -43 97
-91 145 -45 46 -77 62 -155 82 -15 4 -5810 10 -5813 6z"/>
</g>
</svg>
